<?xml version="1.0" encoding="utf-8"?>
<!-- Generator: Adobe Illustrator 21.1.0, SVG Export Plug-In . SVG Version: 6.00 Build 0)  -->
<svg version="1.1" id="圖層_2" xmlns="http://www.w3.org/2000/svg" xmlns:xlink="http://www.w3.org/1999/xlink" x="0px" y="0px"
	 viewBox="0 0 33 33" style="enable-background:new 0 0 33 33;" xml:space="preserve">
<style type="text/css">
	.st0{display:none;fill:#20C1D1;}
	.st1{display:none;}
	.st2{fill:#FFFFFF;}
</style>
<circle class="st0" cx="16.5" cy="16.5" r="16.5"/>
<path class="st1" d="M25.1,24.3l-4.9-5l0,0c2.6-2.9,2.5-7.4-0.3-10.2c-2.9-2.9-7.7-2.9-10.6,0C7.8,10.6,7,12.4,7,14.4
	s0.8,3.9,2.2,5.3c1.5,1.5,3.4,2.2,5.3,2.2c1.5,0,2.9-0.4,4.2-1.3c0,0,0,0.1,0.1,0.1l4.9,5c0.2,0.2,0.5,0.3,0.7,0.3s0.5-0.1,0.7-0.3
	C25.5,25.4,25.5,24.7,25.1,24.3z M10.6,18.3c-1-1-1.6-2.4-1.6-3.9s0.6-2.9,1.6-3.9c1.1-1.1,2.5-1.6,3.9-1.6s2.8,0.5,3.9,1.6
	c2.1,2.1,2.1,5.6,0,7.8C16.2,20.5,12.8,20.5,10.6,18.3z"/>
<g>
	<path class="st2" d="M23.3,28H9.8C8.2,28,7,26.8,7,25.3V7.8C7,6.2,8.2,5,9.8,5h13.5C24.8,5,26,6.2,26,7.8v17.5
		C26,26.8,24.8,28,23.3,28z M9.8,7C9.3,7,9,7.3,9,7.8v17.5C9,25.7,9.3,26,9.8,26h13.5c0.4,0,0.8-0.3,0.8-0.8V7.8
		C24,7.3,23.7,7,23.3,7H9.8z"/>
	<rect x="10.5" y="9.5" class="st2" width="7" height="2"/>
	<rect x="10.5" y="13.5" class="st2" width="12" height="2"/>
	<rect x="10.5" y="17.5" class="st2" width="12" height="2"/>
	<rect x="10.5" y="21.5" class="st2" width="12" height="2"/>
</g>
</svg>
