<?xml version="1.0" encoding="utf-8"?>
<!-- Generator: Adobe Illustrator 21.1.0, SVG Export Plug-In . SVG Version: 6.00 Build 0)  -->
<svg version="1.1" id="圖層_2" xmlns="http://www.w3.org/2000/svg" xmlns:xlink="http://www.w3.org/1999/xlink" x="0px" y="0px"
	 viewBox="0 0 33 33" style="enable-background:new 0 0 33 33;" xml:space="preserve">
<style type="text/css">
	.st0{display:none;fill:#20C1D1;}
	.st1{display:none;}
	.st2{display:inline;}
	.st3{fill:#FFFFFF;}
</style>
<circle class="st0" cx="16.5" cy="16.5" r="16.5"/>
<path class="st1" d="M25.1,24.3l-4.9-5l0,0c2.6-2.9,2.5-7.4-0.3-10.2c-2.9-2.9-7.7-2.9-10.6,0C7.8,10.6,7,12.4,7,14.4
	s0.8,3.9,2.2,5.3c1.5,1.5,3.4,2.2,5.3,2.2c1.5,0,2.9-0.4,4.2-1.3c0,0,0,0.1,0.1,0.1l4.9,5c0.2,0.2,0.5,0.3,0.7,0.3s0.5-0.1,0.7-0.3
	C25.5,25.4,25.5,24.7,25.1,24.3z M10.6,18.3c-1-1-1.6-2.4-1.6-3.9s0.6-2.9,1.6-3.9c1.1-1.1,2.5-1.6,3.9-1.6s2.8,0.5,3.9,1.6
	c2.1,2.1,2.1,5.6,0,7.8C16.2,20.5,12.8,20.5,10.6,18.3z"/>
<g class="st1">
	<path class="st2" d="M23.3,28H9.8C8.2,28,7,26.8,7,25.3V7.8C7,6.2,8.2,5,9.8,5h13.5C24.8,5,26,6.2,26,7.8v17.5
		C26,26.8,24.8,28,23.3,28z M9.8,7C9.3,7,9,7.3,9,7.8v17.5C9,25.7,9.3,26,9.8,26h13.5c0.4,0,0.8-0.3,0.8-0.8V7.8
		C24,7.3,23.7,7,23.3,7H9.8z"/>
	<rect x="10.5" y="9.5" class="st2" width="7" height="2"/>
	<rect x="10.5" y="13.5" class="st2" width="12" height="2"/>
	<rect x="10.5" y="17.5" class="st2" width="12" height="2"/>
	<rect x="10.5" y="21.5" class="st2" width="12" height="2"/>
</g>
<g class="st1">
	<path class="st2" d="M22.7,5.5H10.3c-2.7,0-4.8,2.2-4.8,4.8v12.3c0,2.7,2.2,4.8,4.8,4.8h12.3c2.7,0,4.8-2.2,4.8-4.8V10.3
		C27.5,7.7,25.3,5.5,22.7,5.5z M10.3,7.5h12.3c1.6,0,2.8,1.3,2.8,2.8v1.2h-18v-1.2C7.5,8.8,8.8,7.5,10.3,7.5z M22.7,25.5H10.3
		c-1.6,0-2.8-1.3-2.8-2.8v-9.2h18v9.2C25.5,24.2,24.2,25.5,22.7,25.5z"/>
	<circle class="st2" cx="11.1" cy="16.8" r="1.3"/>
	<circle class="st2" cx="16.4" cy="22.2" r="1.3"/>
	<circle class="st2" cx="16.4" cy="16.8" r="1.3"/>
	<circle class="st2" cx="11.1" cy="22.2" r="1.3"/>
	<circle class="st2" cx="21.4" cy="16.8" r="1.3"/>
</g>
<g class="st1">
	<path class="st2" d="M20,24c-1-0.6-5-1.8-8.1-1.8c-0.1,0-0.3,0-0.4,0c0.4-1.6,1.3-4.5,2.7-6.5c1.8-2.7,5-3.4,5-3.4
		c0.2-0.1,0.4-0.3,0.4-0.6l-0.2-1.1c0-0.1-0.1-0.2-0.2-0.3s-0.2-0.1-0.4-0.1c-0.2,0-3.9,0.9-6.2,4.3c-1.9,2.9-3,7-3.3,8.2
		c-0.7,0.3-1.2,0.6-1.7,0.9C7.4,23.7,7.2,23.9,7,24c-0.3,0.1-0.4,0.5-0.3,0.8s0.3,0.5,0.6,0.5h12.4c0.3,0,0.5-0.2,0.6-0.5
		S20.3,24.2,20,24z"/>
	<path class="st2" d="M25.8,8.7c-0.8-1.2-2.4-1-3.3-0.7c-0.4,0.1-1.7,0.7-1.9,2c-0.1,0.7,0.1,1.7,0.8,2.1c0.2,0.1,0.4,0.2,0.7,0.2
		c0.3,0,0.8-0.1,1.4-0.1h0.3c1.2-0.2,1.7-0.2,2-0.6C26.4,10.7,26.4,9.5,25.8,8.7z"/>
</g>
<path class="st1" d="M16.5,6.8c-4,0-7.3,3.2-7.3,7.3c0,5.6,7.3,12.1,7.3,12.1s7.3-6.4,7.3-12.1C23.8,10.1,20.5,6.8,16.5,6.8z
	 M16.5,16.7c-1.9,0-3.5-1.6-3.5-3.5s1.6-3.5,3.5-3.5s3.5,1.6,3.5,3.5S18.4,16.7,16.5,16.7z"/>
<g class="st1">
	<rect x="10.9" y="13.2" transform="matrix(0.6919 -0.722 0.722 0.6919 -6.8163 16.9601)" class="st2" width="11.2" height="6.5"/>
	<path class="st2" d="M27.1,12.9l-1.9-1.8c-1,1-2.5,1-3.5,0c-1-0.9-1-2.5-0.1-3.5l-1.9-1.8c-0.5-0.5-1.4-0.5-1.9,0L5.9,18.2
		c-0.5,0.5-0.5,1.4,0,1.9l1.9,1.8c1-1,2.5-1,3.5,0c1,0.9,1,2.5,0.1,3.5l1.9,1.8c0.5,0.5,1.4,0.5,1.9,0L27,14.8
		C27.6,14.3,27.6,13.4,27.1,12.9z M15.3,23.7c-0.2,0.2-0.4,0.2-0.6,0l-5.3-5.1c-0.2-0.2-0.2-0.4,0-0.6l8.4-8.7
		c0.2-0.2,0.4-0.2,0.6,0l5.3,5.1c0.2,0.2,0.2,0.4,0,0.6L15.3,23.7z"/>
</g>
<g>
	<polygon class="st3" points="11.9,12.4 21.1,12.4 20.7,16.7 12.3,16.7 	"/>
	<polygon class="st3" points="11.9,17.3 21.1,17.3 20.7,21.5 12.3,21.5 	"/>
	<polygon class="st3" points="11.9,22.1 21.1,22.1 20.7,26.4 12.3,26.4 	"/>
	<polygon class="st3" points="11.9,26.9 21.1,26.9 20.7,31.2 12.3,31.2 	"/>
	<polygon class="st3" points="11.9,31.7 21.1,31.7 20.7,36 12.3,36 	"/>
	<rect x="13.6" y="10.2" class="st3" width="5.8" height="1.7"/>
	<rect x="14.8" y="6.6" class="st3" width="3.3" height="3"/>
	<rect x="15.5" y="4.8" class="st3" width="2" height="1.3"/>
	<rect x="16.3" y="2" class="st3" width="0.4" height="2.8"/>
</g>
</svg>
