<?xml version="1.0" encoding="utf-8"?>
<!-- Generator: Adobe Illustrator 21.1.0, SVG Export Plug-In . SVG Version: 6.00 Build 0)  -->
<svg version="1.1" id="圖層_2" xmlns="http://www.w3.org/2000/svg" xmlns:xlink="http://www.w3.org/1999/xlink" x="0px" y="0px"
	 viewBox="0 0 33 33" style="enable-background:new 0 0 33 33;" xml:space="preserve">
<style type="text/css">
	.st0{display:none;fill:#20C1D1;}
	.st1{fill:#FFFFFF;}
</style>
<circle class="st0" cx="16.5" cy="16.5" r="16.5"/>
<path class="st1" d="M25.1,24.3l-4.9-5l0,0c2.6-2.9,2.5-7.4-0.3-10.2c-2.9-2.9-7.7-2.9-10.6,0C7.8,10.6,7,12.4,7,14.4
	s0.8,3.9,2.2,5.3c1.5,1.5,3.4,2.2,5.3,2.2c1.5,0,2.9-0.4,4.2-1.3c0,0,0,0.1,0.1,0.1l4.9,5c0.2,0.2,0.5,0.3,0.7,0.3s0.5-0.1,0.7-0.3
	C25.5,25.4,25.5,24.7,25.1,24.3z M10.6,18.3c-1-1-1.6-2.4-1.6-3.9s0.6-2.9,1.6-3.9c1.1-1.1,2.5-1.6,3.9-1.6s2.8,0.5,3.9,1.6
	c2.1,2.1,2.1,5.6,0,7.8C16.2,20.5,12.8,20.5,10.6,18.3z"/>
</svg>
